<svg xmlns="http://www.w3.org/2000/svg" width="214" height="217" viewBox="0 0 214 217">
  <g id="Grupo_41" data-name="Grupo 41" transform="translate(0 0.058)">
    <g id="Grupo_36" data-name="Grupo 36" transform="translate(0 -0.425)">
      <g id="Elipse_1" data-name="Elipse 1" transform="translate(129 0.367)" fill="rgba(255,255,255,0)" stroke="#1e86eb" stroke-width="2">
        <circle cx="10" cy="10" r="10" stroke="none"/>
        <circle cx="10" cy="10" r="9" fill="none"/>
      </g>
      <g id="Elipse_2" data-name="Elipse 2" transform="translate(65 0.367)" fill="rgba(255,255,255,0)" stroke="#1e86eb" stroke-width="2">
        <circle cx="10" cy="10" r="10" stroke="none"/>
        <circle cx="10" cy="10" r="9" fill="none"/>
      </g>
      <g id="Elipse_3" data-name="Elipse 3" transform="translate(0 0.367)" fill="rgba(255,255,255,0)" stroke="#1e86eb" stroke-width="2">
        <circle cx="10" cy="10" r="10" stroke="none"/>
        <circle cx="10" cy="10" r="9" fill="none"/>
      </g>
    </g>
    <g id="Grupo_37" data-name="Grupo 37" transform="translate(0 65.517)">
      <g id="Elipse_1-2" data-name="Elipse 1" transform="translate(129 0.424)" fill="rgba(255,255,255,0)" stroke="#1e86eb" stroke-width="2">
        <ellipse cx="10" cy="9.5" rx="10" ry="9.5" stroke="none"/>
        <ellipse cx="10" cy="9.5" rx="9" ry="8.5" fill="none"/>
      </g>
      <g id="Elipse_4" data-name="Elipse 4" transform="translate(194 0.424)" fill="rgba(255,255,255,0)" stroke="#1e86eb" stroke-width="2">
        <ellipse cx="10" cy="9.5" rx="10" ry="9.5" stroke="none"/>
        <ellipse cx="10" cy="9.5" rx="9" ry="8.5" fill="none"/>
      </g>
      <g id="Elipse_2-2" data-name="Elipse 2" transform="translate(65 0.424)" fill="rgba(255,255,255,0)" stroke="#1e86eb" stroke-width="2">
        <ellipse cx="10" cy="9.5" rx="10" ry="9.5" stroke="none"/>
        <ellipse cx="10" cy="9.5" rx="9" ry="8.5" fill="none"/>
      </g>
      <g id="Elipse_3-2" data-name="Elipse 3" transform="translate(0 0.424)" fill="rgba(255,255,255,0)" stroke="#1e86eb" stroke-width="2">
        <ellipse cx="10" cy="9.5" rx="10" ry="9.5" stroke="none"/>
        <ellipse cx="10" cy="9.5" rx="9" ry="8.5" fill="none"/>
      </g>
    </g>
    <g id="Grupo_38" data-name="Grupo 38" transform="translate(0 131.459)">
      <g id="Elipse_1-3" data-name="Elipse 1" transform="translate(129 0.483)" fill="rgba(255,255,255,0)" stroke="#1e86eb" stroke-width="2">
        <ellipse cx="10" cy="9.5" rx="10" ry="9.5" stroke="none"/>
        <ellipse cx="10" cy="9.5" rx="9" ry="8.5" fill="none"/>
      </g>
      <g id="Elipse_4-2" data-name="Elipse 4" transform="translate(194 0.483)" fill="rgba(255,255,255,0)" stroke="#1e86eb" stroke-width="2">
        <ellipse cx="10" cy="9.5" rx="10" ry="9.5" stroke="none"/>
        <ellipse cx="10" cy="9.5" rx="9" ry="8.5" fill="none"/>
      </g>
      <g id="Elipse_2-3" data-name="Elipse 2" transform="translate(65 0.483)" fill="rgba(255,255,255,0)" stroke="#1e86eb" stroke-width="2">
        <ellipse cx="10" cy="9.5" rx="10" ry="9.5" stroke="none"/>
        <ellipse cx="10" cy="9.5" rx="9" ry="8.5" fill="none"/>
      </g>
      <g id="Elipse_3-3" data-name="Elipse 3" transform="translate(0 0.483)" fill="rgba(255,255,255,0)" stroke="#1e86eb" stroke-width="2">
        <ellipse cx="10" cy="9.5" rx="10" ry="9.5" stroke="none"/>
        <ellipse cx="10" cy="9.5" rx="9" ry="8.5" fill="none"/>
      </g>
    </g>
    <g id="Grupo_39" data-name="Grupo 39" transform="translate(0 197.4)">
      <g id="Elipse_1-4" data-name="Elipse 1" transform="translate(129 -0.459)" fill="rgba(255,255,255,0)" stroke="#1e86eb" stroke-width="2">
        <circle cx="10" cy="10" r="10" stroke="none"/>
        <circle cx="10" cy="10" r="9" fill="none"/>
      </g>
      <g id="Elipse_4-3" data-name="Elipse 4" transform="translate(194 -0.459)" fill="rgba(255,255,255,0)" stroke="#1e86eb" stroke-width="2">
        <circle cx="10" cy="10" r="10" stroke="none"/>
        <circle cx="10" cy="10" r="9" fill="none"/>
      </g>
      <g id="Elipse_2-4" data-name="Elipse 2" transform="translate(65 -0.459)" fill="rgba(255,255,255,0)" stroke="#1e86eb" stroke-width="2">
        <circle cx="10" cy="10" r="10" stroke="none"/>
        <circle cx="10" cy="10" r="9" fill="none"/>
      </g>
      <g id="Elipse_3-4" data-name="Elipse 3" transform="translate(0 -0.459)" fill="rgba(255,255,255,0)" stroke="#1e86eb" stroke-width="2">
        <circle cx="10" cy="10" r="10" stroke="none"/>
        <circle cx="10" cy="10" r="9" fill="none"/>
      </g>
    </g>
  </g>
</svg>
