<svg id="scroll-down-icon" xmlns="http://www.w3.org/2000/svg" width="37.552" height="58.145" viewBox="0 0 37.552 58.145">
  <path id="Trazado_1" data-name="Trazado 1" d="M23.754,57.554a18.853,18.853,0,0,0,13.8-18.1V18.776A18.776,18.776,0,0,0,0,18.776V39.445A18.848,18.848,0,0,0,15.4,57.918a23.063,23.063,0,0,0,8.356-.364ZM18.563,43.561a3.585,3.585,0,0,0,3.573-3.573V36.307a3.573,3.573,0,1,0-7.145,0v3.681a3.582,3.582,0,0,0,3.573,3.573ZM28.9,49.576A14.342,14.342,0,0,1,4.434,39.449V18.776a14.342,14.342,0,0,1,28.684,0V39.445A14.294,14.294,0,0,1,28.9,49.576Z" fill="#03249c"/>
</svg>
