<?xml version="1.0" encoding="utf-8"?>
<!-- Generator: Adobe Illustrator 27.6.1, SVG Export Plug-In . SVG Version: 6.00 Build 0)  -->
<svg version="1.1" id="Layer_2_00000022544913299072706600000001897449111507359113_"
	 xmlns="http://www.w3.org/2000/svg" xmlns:xlink="http://www.w3.org/1999/xlink" x="0px" y="0px" viewBox="0 0 354.8 321.8"
	 style="enable-background:new 0 0 354.8 321.8;" xml:space="preserve">
<style type="text/css">
	.st0{fill:#3D9AF4;}
</style>
<g id="Layer_1-2">
	<path class="st0" d="M341.5,55c-8.9-15.6-22.2-27.8-39.9-36.7C283.9,9.4,262.2,5,236.5,5H126.1c-9.1,0-16.5,7.4-16.5,16.5v210
		c0,9.1,7.4,16.5,16.5,16.5h45.3c9.1,0,16.5-7.4,16.5-16.5v-3.8c0-9.1,7.4-16.5,16.5-16.5h32.1c26.3,0,48.3-4.7,66-14.2
		c17.7-9.5,30.9-21.9,39.4-37.4c8.5-15.4,12.8-32.5,12.8-51.1C354.8,88.4,350.4,70.5,341.5,55L341.5,55z M264,138.4
		c-7.3,7-18.5,10.5-33.5,10.5h-26.1c-9.1,0-16.5-7.4-16.5-16.5V84.8c0-9.1,7.4-16.5,16.5-16.5h26.1c15,0,26.1,3.5,33.5,10.5
		c7.3,7,11,17,11,29.8S271.4,131.3,264,138.4L264,138.4z"/>
	<path class="st0" d="M198.4,261.1h-44.5c-0.8,0-1.7,0.1-2.5,0.2c-0.2,0-0.4,0-0.7,0h-42.2c-16.7,0-30.2-13.5-30.2-30.2V30.2
		C78.4,13.5,64.8,0,48.1,0H30.2C13.5,0,0,13.5,0,30.2v261.3c0,16.7,13.5,30.2,30.2,30.2h120.5c0.6,0,1.3,0,1.9-0.1
		c0.4,0,0.8,0.1,1.3,0.1h44.5c9,0,16.4-7.3,16.4-16.4v-28C214.8,268.4,207.5,261.1,198.4,261.1L198.4,261.1z"/>
</g>
</svg>
